<svg xmlns="http://www.w3.org/2000/svg" viewBox="0 0 100 100">
  <rect x="10" y="20" width="80" height="60" rx="5" fill="#00979c" />
  <rect x="20" y="30" width="60" height="40" rx="2" fill="#e6e6e6" />
  <circle cx="25" cy="25" r="2" fill="#e6e6e6" />
  <circle cx="75" cy="25" r="2" fill="#e6e6e6" />
  <circle cx="25" cy="75" r="2" fill="#e6e6e6" />
  <circle cx="75" cy="75" r="2" fill="#e6e6e6" />
  <!-- USB Port -->
  <rect x="15" y="40" width="5" height="10" fill="#b4b4b4" />
  <!-- Power Jack -->
  <rect x="15" y="55" width="5" height="8" rx="1" fill="#373737" />
  <!-- Digital Pins -->
  <g fill="#1a1a1a">
    <rect x="30" y="30" width="2" height="2" />
    <rect x="35" y="30" width="2" height="2" />
    <rect x="40" y="30" width="2" height="2" />
    <rect x="45" y="30" width="2" height="2" />
    <rect x="50" y="30" width="2" height="2" />
    <rect x="55" y="30" width="2" height="2" />
    <rect x="60" y="30" width="2" height="2" />
    <rect x="65" y="30" width="2" height="2" />
  </g>
  <!-- Analog Pins -->
  <g fill="#1a1a1a">
    <rect x="30" y="68" width="2" height="2" />
    <rect x="35" y="68" width="2" height="2" />
    <rect x="40" y="68" width="2" height="2" />
    <rect x="45" y="68" width="2" height="2" />
    <rect x="50" y="68" width="2" height="2" />
    <rect x="55" y="68" width="2" height="2" />
  </g>
  <!-- Microcontroller -->
  <rect x="40" y="45" width="20" height="10" rx="1" fill="#373737" />
  <!-- Text -->
  <text x="50" y="85" font-family="Arial" font-size="5" text-anchor="middle" fill="white">ARDUINO UNO</text>
</svg>