<svg xmlns="http://www.w3.org/2000/svg" viewBox="0 0 100 100">
  <!-- Module Body -->
  <rect x="20" y="30" width="60" height="40" rx="2" fill="#3498db" />
  <!-- ESP8266 Chip -->
  <rect x="35" y="40" width="30" height="20" rx="1" fill="#2c3e50" />
  <!-- Antenna -->
  <rect x="75" y="35" width="5" height="30" rx="2" fill="#7f8c8d" />
  <path d="M80,35 Q90,45 80,55" fill="none" stroke="#7f8c8d" stroke-width="2" />
  <path d="M82,40 Q87,45 82,50" fill="none" stroke="#7f8c8d" stroke-width="1" />
  <!-- WiFi Symbol -->
  <g fill="none" stroke="#f7f7f7" stroke-width="1">
    <path d="M50,35 Q60,45 50,55 Q40,45 50,35" />
    <path d="M50,38 Q57,45 50,52 Q43,45 50,38" />
    <path d="M50,41 Q54,45 50,49 Q46,45 50,41" />
    <circle cx="50" cy="45" r="1" fill="#f7f7f7" />
  </g>
  <!-- Pins -->
  <g fill="#f7f7f7">
    <rect x="25" y="75" width="2" height="10" />
    <rect x="35" y="75" width="2" height="10" />
    <rect x="45" y="75" width="2" height="10" />
    <rect x="55" y="75" width="2" height="10" />
    <rect x="65" y="75" width="2" height="10" />
  </g>
  <!-- Labels -->
  <text x="26" y="82" font-family="Arial" font-size="3" fill="#3498db">GND</text>
  <text x="36" y="82" font-family="Arial" font-size="3" fill="#3498db">VCC</text>
  <text x="46" y="82" font-family="Arial" font-size="3" fill="#3498db">RX</text>
  <text x="56" y="82" font-family="Arial" font-size="3" fill="#3498db">TX</text>
  <text x="66" y="82" font-family="Arial" font-size="3" fill="#3498db">CH_PD</text>
  <!-- Text -->
  <text x="50" y="25" font-family="Arial" font-size="5" text-anchor="middle" fill="#3498db">ESP8266</text>
  <text x="50" y="90" font-family="Arial" font-size="3" text-anchor="middle" fill="#3498db">WiFi Module</text>
</svg>