<svg xmlns="http://www.w3.org/2000/svg" viewBox="0 0 100 100">
  <rect x="10" y="20" width="80" height="60" rx="5" fill="#bc1142" />
  <!-- GPIO Pins -->
  <g fill="#f7f7f7">
    <rect x="20" y="25" width="2" height="2" />
    <rect x="25" y="25" width="2" height="2" />
    <rect x="30" y="25" width="2" height="2" />
    <rect x="35" y="25" width="2" height="2" />
    <rect x="40" y="25" width="2" height="2" />
    <rect x="45" y="25" width="2" height="2" />
    <rect x="50" y="25" width="2" height="2" />
    <rect x="55" y="25" width="2" height="2" />
    <rect x="60" y="25" width="2" height="2" />
    <rect x="65" y="25" width="2" height="2" />
    <rect x="70" y="25" width="2" height="2" />
    <rect x="75" y="25" width="2" height="2" />
    <rect x="20" y="30" width="2" height="2" />
    <rect x="25" y="30" width="2" height="2" />
    <rect x="30" y="30" width="2" height="2" />
    <rect x="35" y="30" width="2" height="2" />
    <rect x="40" y="30" width="2" height="2" />
    <rect x="45" y="30" width="2" height="2" />
    <rect x="50" y="30" width="2" height="2" />
    <rect x="55" y="30" width="2" height="2" />
    <rect x="60" y="30" width="2" height="2" />
    <rect x="65" y="30" width="2" height="2" />
    <rect x="70" y="30" width="2" height="2" />
    <rect x="75" y="30" width="2" height="2" />
  </g>
  <!-- USB Ports -->
  <rect x="15" y="40" width="8" height="5" fill="#373737" />
  <rect x="15" y="50" width="8" height="5" fill="#373737" />
  <!-- HDMI Port -->
  <rect x="15" y="60" width="10" height="5" fill="#373737" />
  <!-- Ethernet Port -->
  <rect x="30" y="70" width="15" height="10" fill="#f7f7f7" />
  <!-- Processor -->
  <rect x="50" y="45" width="20" height="20" rx="2" fill="#373737" />
  <!-- RAM -->
  <rect x="75" y="45" width="10" height="10" rx="1" fill="#00a2e8" />
  <!-- SD Card Slot -->
  <rect x="50" y="70" width="15" height="5" fill="#f7f7f7" />
  <!-- Logo -->
  <circle cx="35" cy="50" r="8" fill="#75a928" />
  <text x="50" y="85" font-family="Arial" font-size="5" text-anchor="middle" fill="white">RASPBERRY PI</text>
</svg>