<svg xmlns="http://www.w3.org/2000/svg" viewBox="0 0 100 100">
  <!-- Servo Body -->
  <rect x="25" y="30" width="50" height="30" rx="2" fill="#9b59b6" />
  <!-- Servo Top -->
  <rect x="35" y="25" width="30" height="5" rx="1" fill="#8e44ad" />
  <!-- Servo Horn -->
  <circle cx="50" cy="25" r="3" fill="#f7f7f7" stroke="#8e44ad" stroke-width="1" />
  <g stroke="#f7f7f7" stroke-width="2" stroke-linecap="round">
    <line x1="50" y1="22" x2="50" y2="15" />
    <line x1="47" y1="25" x2="40" y2="25" />
    <line x1="53" y1="25" x2="60" y2="25" />
  </g>
  <!-- Servo Details -->
  <rect x="30" y="35" width="40" height="20" rx="1" fill="#8e44ad" />
  <circle cx="50" cy="45" r="8" fill="#f7f7f7" />
  <circle cx="50" cy="45" r="6" fill="#8e44ad" />
  <circle cx="50" cy="45" r="1" fill="#f7f7f7" />
  <!-- Pins -->
  <g fill="#f7f7f7">
    <rect x="35" y="65" width="2" height="10" />
    <rect x="45" y="65" width="2" height="10" />
    <rect x="55" y="65" width="2" height="10" />
  </g>
  <!-- Labels -->
  <text x="36" y="72" font-family="Arial" font-size="3" fill="#9b59b6">GND</text>
  <text x="46" y="72" font-family="Arial" font-size="3" fill="#9b59b6">VCC</text>
  <text x="56" y="72" font-family="Arial" font-size="3" fill="#9b59b6">SIG</text>
  <!-- Text -->
  <text x="50" y="85" font-family="Arial" font-size="5" text-anchor="middle" fill="#9b59b6">SG90 Servo</text>
  <text x="50" y="90" font-family="Arial" font-size="3" text-anchor="middle" fill="#9b59b6">180° Rotation</text>
</svg>