<svg width="800" height="600" viewBox="0 0 800 600" fill="none" xmlns="http://www.w3.org/2000/svg">
  <!-- Background Grid -->
  <rect width="800" height="600" fill="#F8FAFC" />
  <path d="M0 50H800M0 100H800M0 150H800M0 200H800M0 250H800M0 300H800M0 350H800M0 400H800M0 450H800M0 500H800M0 550H800M50 0V600M100 0V600M150 0V600M200 0V600M250 0V600M300 0V600M350 0V600M400 0V600M450 0V600M500 0V600M550 0V600M600 0V600M650 0V600M700 0V600M750 0V600" stroke="#E2E8F0" stroke-width="1" />

  <!-- Virtual Workspace Platform -->
  <rect x="150" y="200" width="500" height="300" rx="10" fill="#FFFFFF" stroke="#94A3B8" stroke-width="2" />
  
  <!-- Code Editor Section -->
  <rect x="170" y="240" width="220" height="240" rx="5" fill="#1E293B" />
  <rect x="180" y="250" width="200" height="20" fill="#334155" />
  
  <!-- Code Lines -->
  <rect x="180" y="280" width="180" height="6" rx="3" fill="#64748B" />
  <rect x="180" y="296" width="160" height="6" rx="3" fill="#64748B" />
  <rect x="180" y="312" width="190" height="6" rx="3" fill="#64748B" />
  <rect x="180" y="328" width="140" height="6" rx="3" fill="#64748B" />
  <rect x="180" y="344" width="170" height="6" rx="3" fill="#64748B" />
  <rect x="180" y="360" width="150" height="6" rx="3" fill="#64748B" />
  <rect x="180" y="376" width="180" height="6" rx="3" fill="#64748B" />
  <rect x="180" y="392" width="130" height="6" rx="3" fill="#64748B" />
  <rect x="180" y="408" width="160" height="6" rx="3" fill="#64748B" />
  <rect x="180" y="424" width="170" height="6" rx="3" fill="#64748B" />
  <rect x="180" y="440" width="140" height="6" rx="3" fill="#64748B" />
  <rect x="180" y="456" width="180" height="6" rx="3" fill="#64748B" />
  
  <!-- Circuit Simulation Area -->
  <rect x="410" y="240" width="220" height="240" rx="5" fill="#F1F5F9" />
  
  <!-- Arduino Board -->
  <rect x="450" y="280" width="140" height="80" rx="5" fill="#0EA5E9" />
  <rect x="460" y="290" width="10" height="10" rx="2" fill="#FFFFFF" />
  <rect x="480" y="290" width="10" height="10" rx="2" fill="#FFFFFF" />
  <rect x="500" y="290" width="10" height="10" rx="2" fill="#FFFFFF" />
  <rect x="520" y="290" width="10" height="10" rx="2" fill="#FFFFFF" />
  <rect x="540" y="290" width="10" height="10" rx="2" fill="#FFFFFF" />
  <rect x="560" y="290" width="10" height="10" rx="2" fill="#FFFFFF" />
  
  <rect x="460" y="310" width="10" height="10" rx="2" fill="#FFFFFF" />
  <rect x="480" y="310" width="10" height="10" rx="2" fill="#FFFFFF" />
  <rect x="500" y="310" width="10" height="10" rx="2" fill="#FFFFFF" />
  <rect x="520" y="310" width="10" height="10" rx="2" fill="#FFFFFF" />
  <rect x="540" y="310" width="10" height="10" rx="2" fill="#FFFFFF" />
  <rect x="560" y="310" width="10" height="10" rx="2" fill="#FFFFFF" />
  
  <rect x="460" y="330" width="10" height="10" rx="2" fill="#FFFFFF" />
  <rect x="480" y="330" width="10" height="10" rx="2" fill="#FFFFFF" />
  <rect x="500" y="330" width="10" height="10" rx="2" fill="#FFFFFF" />
  <rect x="520" y="330" width="10" height="10" rx="2" fill="#FFFFFF" />
  <rect x="540" y="330" width="10" height="10" rx="2" fill="#FFFFFF" />
  <rect x="560" y="330" width="10" height="10" rx="2" fill="#FFFFFF" />
  
  <!-- LED Component -->
  <circle cx="450" y="400" r="15" fill="#EF4444" />
  <circle cx="450" y="400" r="8" fill="#FEF2F2" />
  
  <!-- Sensor Component -->
  <rect x="490" y="390" width="30" height="20" rx="3" fill="#10B981" />
  <circle cx="505" cy="400" r="5" fill="#FFFFFF" />
  
  <!-- Button Component -->
  <rect x="540" y="390" width="30" height="20" rx="10" fill="#6366F1" />
  <rect x="545" y="395" width="20" height="10" rx="5" fill="#C7D2FE" />
  
  <!-- Wires -->
  <path d="M450 385 L450 360 L500 360 L500 380" stroke="#DC2626" stroke-width="2" />
  <path d="M505 420 L505 440 L520 440 L520 330" stroke="#059669" stroke-width="2" />
  <path d="M540 400 L530 400 L530 420 L450 420 L450 415" stroke="#4F46E5" stroke-width="2" />
  
  <!-- Component Palette -->
  <rect x="170" y="170" width="460" height="50" rx="5" fill="#FFFFFF" stroke="#94A3B8" stroke-width="2" />
  
  <!-- Palette Items -->
  <circle cx="200" cy="195" r="15" fill="#EF4444" />
  <rect x="230" y="185" width="30" height="20" rx="3" fill="#10B981" />
  <rect x="280" y="185" width="30" height="20" rx="10" fill="#6366F1" />
  <rect x="330" y="185" width="30" height="20" rx="3" fill="#F59E0B" />
  <rect x="380" y="180" width="40" height="30" rx="3" fill="#0EA5E9" />
  <rect x="440" y="185" width="30" height="20" rx="3" fill="#8B5CF6" />
  <rect x="490" y="185" width="30" height="20" rx="3" fill="#EC4899" />
  <rect x="540" y="185" width="30" height="20" rx="3" fill="#14B8A6" />
  <rect x="590" y="185" width="30" height="20" rx="3" fill="#F97316" />
  
  <!-- Floating Elements -->
  <circle cx="150" cy="150" r="20" fill="#3B82F6" opacity="0.2" />
  <circle cx="650" cy="120" r="30" fill="#8B5CF6" opacity="0.2" />
  <circle cx="700" cy="450" r="25" fill="#EF4444" opacity="0.2" />
  <circle cx="100" cy="400" r="35" fill="#10B981" opacity="0.2" />
  
  <!-- Title -->
  <rect x="250" y="100" width="300" height="50" rx="25" fill="#3B82F6" />
  <text x="400" y="135" font-family="Arial" font-size="24" font-weight="bold" fill="white" text-anchor="middle">IoT Simulation Platform</text>
</svg>